<?xml version="1.0" encoding="UTF-8"?>
<!DOCTYPE svg PUBLIC "-//W3C//DTD SVG 1.1//EN" "http://www.w3.org/Graphics/SVG/1.1/DTD/svg11.dtd">
<svg xmlns="http://www.w3.org/2000/svg" version="1.1" width="100px" height="100px" style="shape-rendering:geometricPrecision; text-rendering:geometricPrecision; image-rendering:optimizeQuality; fill-rule:evenodd; clip-rule:evenodd" xmlns:xlink="http://www.w3.org/1999/xlink">
<g><path style="opacity:0.971" fill="#3ca8fb" d="M 65.5,13.5 C 66.8734,13.3433 68.2068,13.51 69.5,14C 72.9275,17.9987 74.7608,22.4987 75,27.5C 74.5,28 74,28.5 73.5,29C 75.4536,37.5657 76.1203,46.399 75.5,55.5C 58.1667,55.5 40.8333,55.5 23.5,55.5C 23.5,46.8333 23.5,38.1667 23.5,29.5C 25.1992,29.6602 26.8659,29.4935 28.5,29C 32.1667,26 35.8333,23 39.5,20C 45.8333,19.6667 52.1667,19.3333 58.5,19C 61.02,17.3029 63.3533,15.4695 65.5,13.5 Z M 65.5,19.5 C 67.952,20.7359 69.1187,22.7359 69,25.5C 60.8511,32.4779 52.0177,38.4779 42.5,43.5C 41.479,42.9984 41.3123,42.3317 42,41.5C 44.6277,39.8745 46.961,37.8745 49,35.5C 49.6667,33.8333 49.6667,32.1667 49,30.5C 44.92,29.6998 40.7533,29.1998 36.5,29C 38.8333,27.3333 41.1667,25.6667 43.5,24C 49.5,23.6667 55.5,23.3333 61.5,23C 63.3237,22.34 64.657,21.1733 65.5,19.5 Z"/></g>
<g><path style="opacity:0.999" fill="#3ca7fa" d="M -0.5,59.5 C 15.5,59.5 31.5,59.5 47.5,59.5C 47.5,68.1667 47.5,76.8333 47.5,85.5C 31.5,85.5 15.5,85.5 -0.5,85.5C -0.5,76.8333 -0.5,68.1667 -0.5,59.5 Z"/></g>
<g><path style="opacity:0.998" fill="#3ca7fa" d="M 99.5,59.5 C 99.5,68.1667 99.5,76.8333 99.5,85.5C 83.5,85.5 67.5,85.5 51.5,85.5C 51.5,76.8333 51.5,68.1667 51.5,59.5C 67.5,59.5 83.5,59.5 99.5,59.5 Z"/></g>
</svg>
