<?xml version="1.0" encoding="UTF-8"?>
<!DOCTYPE svg PUBLIC "-//W3C//DTD SVG 1.1//EN" "http://www.w3.org/Graphics/SVG/1.1/DTD/svg11.dtd">
<svg xmlns="http://www.w3.org/2000/svg" version="1.1" width="48px" height="48px" style="shape-rendering:geometricPrecision; text-rendering:geometricPrecision; image-rendering:optimizeQuality; fill-rule:evenodd; clip-rule:evenodd" xmlns:xlink="http://www.w3.org/1999/xlink">
<g><path style="opacity:0.956" fill="#3da8fb" d="M 16.5,3.5 C 36.6499,1.48275 45.4833,10.4828 43,30.5C 37.6574,41.7523 28.8241,45.9189 16.5,43C 5.24773,37.6574 1.08107,28.8241 4,16.5C 6.35314,10.3154 10.5198,5.98203 16.5,3.5 Z M 33.5,15.5 C 35.0281,15.5173 35.5281,16.184 35,17.5C 29.9853,22.6818 24.8186,27.6818 19.5,32.5C 16.5,30.1667 13.8333,27.5 11.5,24.5C 12.0016,23.479 12.6683,23.3123 13.5,24C 15.3501,26.0176 17.3501,27.8509 19.5,29.5C 24.521,25.1456 29.1877,20.479 33.5,15.5 Z"/></g>
</svg>
