<?xml version="1.0" encoding="UTF-8"?>
<!DOCTYPE svg PUBLIC "-//W3C//DTD SVG 1.1//EN" "http://www.w3.org/Graphics/SVG/1.1/DTD/svg11.dtd">
<svg xmlns="http://www.w3.org/2000/svg" version="1.1" width="150px" height="150px" style="shape-rendering:geometricPrecision; text-rendering:geometricPrecision; image-rendering:optimizeQuality; fill-rule:evenodd; clip-rule:evenodd" xmlns:xlink="http://www.w3.org/1999/xlink">
<g><path style="opacity:0.729" fill="#212d62" d="M 61.5,-0.5 C 70.1667,-0.5 78.8333,-0.5 87.5,-0.5C 120.718,7.05069 141.384,27.384 149.5,60.5C 149.5,69.8333 149.5,79.1667 149.5,88.5C 141.5,121.167 121.167,141.5 88.5,149.5C 79.1667,149.5 69.8333,149.5 60.5,149.5C 27.384,141.384 7.05069,120.718 -0.5,87.5C -0.5,78.8333 -0.5,70.1667 -0.5,61.5C 7.5,28.1667 28.1667,7.5 61.5,-0.5 Z"/></g>
<g><path style="opacity:1" fill="#03a4e4" d="M 63.5,1.5 C 108.192,-0.261472 136.026,20.4052 147,63.5C 149.875,94.9107 138.375,119.411 112.5,137C 78.3367,154.855 47.5033,150.355 20,123.5C 3.34016,103.175 -1.99317,80.1747 4,54.5C 14.2816,26.0488 34.115,8.38213 63.5,1.5 Z"/></g>
<g><path style="opacity:1" fill="#232c60" d="M 62.5,6.5 C 98.7111,3.67681 124.211,18.6768 139,51.5C 149.128,90.7326 136.294,119.566 100.5,138C 68.8203,148.668 41.987,141.502 20,116.5C 5.56058,95.4138 2.56058,72.7471 11,48.5C 21.2324,25.8242 38.3991,11.8242 62.5,6.5 Z"/></g>
<g><path style="opacity:1" fill="#dcdde5" d="M 70.5,12.5 C 72.5,12.5 74.5,12.5 76.5,12.5C 76.5,13.5 76.5,14.5 76.5,15.5C 75.1667,15.5 73.8333,15.5 72.5,15.5C 72.5,16.5 72.5,17.5 72.5,18.5C 73.8333,18.5 75.1667,18.5 76.5,18.5C 76.5,19.5 76.5,20.5 76.5,21.5C 75.1667,21.5 73.8333,21.5 72.5,21.5C 72.5,22.8333 72.5,24.1667 72.5,25.5C 74.288,25.2148 75.9547,25.5481 77.5,26.5C 75.2573,27.4742 72.924,27.8076 70.5,27.5C 70.5,22.5 70.5,17.5 70.5,12.5 Z"/></g>
<g><path style="opacity:1" fill="#d9dae3" d="M 62.5,13.5 C 66.3585,15.0406 66.0251,16.0406 61.5,16.5C 61.1052,19.5225 62.1052,20.5225 64.5,19.5C 65.3081,19.8076 65.9747,20.3076 66.5,21C 65.2412,21.9234 63.9079,22.7568 62.5,23.5C 63.7059,25.5159 63.7059,27.5159 62.5,29.5C 60.7048,25.3221 59.3715,20.9888 58.5,16.5C 59.6243,15.1408 60.9577,14.1408 62.5,13.5 Z"/></g>
<g><path style="opacity:1" fill="#e4e4ea" d="M 48.5,18.5 C 52.4038,21.737 56.0704,25.4037 59.5,29.5C 57.5868,30.0512 55.5868,30.2179 53.5,30C 52.9288,31.2051 52.2621,32.3717 51.5,33.5C 50.0215,28.5876 49.0215,23.5876 48.5,18.5 Z"/></g>
<g><path style="opacity:1" fill="#e4e5eb" d="M 83.5,13.5 C 87.4193,12.7464 88.7527,14.0797 87.5,17.5C 86.109,16.3554 84.7757,16.3554 83.5,17.5C 85.993,20.102 87.1597,23.102 87,26.5C 84.4635,29.3127 82.2969,29.146 80.5,26C 80.6667,25.5 80.8333,25 81,24.5C 82.6117,27.0789 84.1117,27.0789 85.5,24.5C 83.8975,22.292 82.5642,19.9587 81.5,17.5C 81.7517,15.9271 82.4183,14.5938 83.5,13.5 Z"/></g>
<g><path style="opacity:1" fill="#dbdce4" d="M 93.5,16.5 C 94.675,16.281 95.675,16.6143 96.5,17.5C 94.8637,22.1102 92.8637,26.4435 90.5,30.5C 90.1667,30 89.8333,29.5 89.5,29C 91.3403,24.9798 92.6736,20.8131 93.5,16.5 Z"/></g>
<g><path style="opacity:1" fill="#535680" d="M 51.5,24.5 C 55.0595,26.2825 55.0595,27.2825 51.5,27.5C 51.5,26.5 51.5,25.5 51.5,24.5 Z"/></g>
<g><path style="opacity:1" fill="#dfdfe7" d="M 101.5,19.5 C 104.43,19.7949 106.43,21.2949 107.5,24C 106.099,28.3837 103.599,31.8837 100,34.5C 97.7856,34.1543 96.2856,32.9876 95.5,31C 97.6328,27.2343 99.6328,23.401 101.5,19.5 Z"/></g>
<g><path style="opacity:1" fill="#2e3366" d="M 102.5,22.5 C 104.344,23.2039 104.844,24.5372 104,26.5C 102.916,27.6651 102.083,28.9984 101.5,30.5C 100.675,31.3857 99.675,31.719 98.5,31.5C 99.5382,28.419 100.872,25.419 102.5,22.5 Z"/></g>
<g><path style="opacity:1" fill="#e5e6ec" d="M 38.5,24.5 C 43.7044,25.6013 43.7044,26.9347 38.5,28.5C 38.7093,29.086 39.0426,29.586 39.5,30C 42.6592,30.0114 45.4926,30.8447 48,32.5C 48.7873,37.2166 46.9539,38.8832 42.5,37.5C 43.6283,36.7379 44.7949,36.0712 46,35.5C 46.6172,34.5509 46.4506,33.7175 45.5,33C 42.3408,32.9886 39.5074,32.1553 37,30.5C 36.2516,28.1599 36.7516,26.1599 38.5,24.5 Z"/></g>
<g><path style="opacity:1" fill="#e7e7ed" d="M 112.5,26.5 C 115.562,27.1867 116.895,28.8534 116.5,31.5C 114.902,29.0266 113.402,29.0266 112,31.5C 111.667,33.0468 112.167,34.3801 113.5,35.5C 113.167,35.8333 112.833,36.1667 112.5,36.5C 111.18,34.7299 109.68,34.3966 108,35.5C 107.376,37.4645 107.876,39.1311 109.5,40.5C 107.083,40.9834 105.416,39.8167 104.5,37C 107.393,33.6158 110.059,30.1158 112.5,26.5 Z"/></g>
<g><path style="opacity:1" fill="#01aaeb" d="M 54.5,44.5 C 66.5,44.5 78.5,44.5 90.5,44.5C 90.5,47.5 90.5,50.5 90.5,53.5C 78.8286,53.3335 67.1619,53.5001 55.5,54C 50.3195,58.5667 49.1528,64.0667 52,70.5C 53.214,72.0488 54.714,73.2155 56.5,74C 69.8333,74.3333 83.1667,74.6667 96.5,75C 103.298,76.4642 107.464,80.6308 109,87.5C 110.683,95.414 109.183,102.581 104.5,109C 102.51,110.751 100.177,111.751 97.5,112C 85.5046,112.5 73.5046,112.667 61.5,112.5C 61.5,109.833 61.5,107.167 61.5,104.5C 72.505,104.667 83.505,104.5 94.5,104C 97.3333,103.167 99.1667,101.333 100,98.5C 102.354,91.4144 100.187,86.5811 93.5,84C 79.8333,83.6667 66.1667,83.3333 52.5,83C 42.5795,77.3073 39.0795,68.8073 42,57.5C 44.3531,51.3154 48.5198,46.982 54.5,44.5 Z"/></g>
<g><path style="opacity:1" fill="#02a8e9" d="M 97.5,45.5 C 100.365,45.0548 102.865,45.7215 105,47.5C 105.5,54.4921 105.666,61.4921 105.5,68.5C 89.8298,68.6666 74.1631,68.4999 58.5,68C 55.6012,64.8442 55.9345,62.1775 59.5,60C 72.1623,59.5001 84.8289,59.3334 97.5,59.5C 97.5,54.8333 97.5,50.1667 97.5,45.5 Z"/></g>
<g><path style="opacity:1" fill="#00abec" d="M 92.5,97.5 C 79.5,97.5 66.5,97.5 53.5,97.5C 54.1083,102.944 53.4417,107.944 51.5,112.5C 48.909,111.746 47.0757,110.079 46,107.5C 45.5005,101.509 45.3338,95.5092 45.5,89.5C 61.5035,89.3334 77.5035,89.5001 93.5,90C 96.3062,92.9372 95.9729,95.4372 92.5,97.5 Z"/></g>
<g><path style="opacity:1" fill="#0f6aa4" d="M 92.5,97.5 C 80.011,98.4954 67.3443,98.8287 54.5,98.5C 54.5,103.5 54.5,108.5 54.5,113.5C 53.209,113.737 52.209,113.404 51.5,112.5C 53.4417,107.944 54.1083,102.944 53.5,97.5C 66.5,97.5 79.5,97.5 92.5,97.5 Z"/></g>
<g><path style="opacity:1" fill="#bdbdce" d="M 25.5,104.5 C 16.8962,103.484 17.2296,101.818 26.5,99.5C 26.634,101.292 26.3007,102.958 25.5,104.5 Z"/></g>
<g><path style="opacity:1" fill="#b6b7c9" d="M 124.5,98.5 C 125.774,99.1894 125.774,100.023 124.5,101C 126.035,101.496 127.535,101.33 129,100.5C 132.069,101.875 132.236,103.541 129.5,105.5C 128.289,104.726 128.289,103.893 129.5,103C 127.527,102.505 125.527,102.338 123.5,102.5C 123.433,101.041 123.766,99.7079 124.5,98.5 Z"/></g>
<g><path style="opacity:1" fill="#cccdd9" d="M 121.5,103.5 C 123.95,104.777 126.283,106.277 128.5,108C 124.755,107.965 124.088,108.965 126.5,111C 123.863,110.507 121.53,109.173 119.5,107C 120.833,106.667 122.167,106.333 123.5,106C 122.244,105.583 121.577,104.75 121.5,103.5 Z"/></g>
<g><path style="opacity:1" fill="#c3c3d2" d="M 25.5,104.5 C 30.2886,105.38 30.622,107.214 26.5,110C 24.8659,110.494 23.1992,110.66 21.5,110.5C 22.203,108.127 23.5363,106.127 25.5,104.5 Z"/></g>
<g><path style="opacity:1" fill="#313668" d="M 25.5,106.5 C 26.2389,106.369 26.9056,106.536 27.5,107C 26.5342,108.678 25.2009,109.345 23.5,109C 24.3805,108.292 25.0472,107.458 25.5,106.5 Z"/></g>
<g><path style="opacity:1" fill="#c5c6d4" d="M 116.5,109.5 C 120.194,110.033 122.361,112.033 123,115.5C 119.623,116.374 117.123,115.041 115.5,111.5C 115.863,110.817 116.196,110.15 116.5,109.5 Z"/></g>
<g><path style="opacity:1" fill="#303668" d="M 117.5,112.5 C 117.897,111.475 118.563,111.308 119.5,112C 121.007,112.837 121.507,114.004 121,115.5C 119.961,114.29 118.794,113.29 117.5,112.5 Z"/></g>
<g><path style="opacity:1" fill="#bebfcf" d="M 29.5,110.5 C 30.2506,109.427 31.2506,109.26 32.5,110C 33.4122,112.488 32.4122,114.155 29.5,115C 28.2068,115.49 26.8734,115.657 25.5,115.5C 25.3692,112.633 26.7026,110.967 29.5,110.5 Z"/></g>
<g><path style="opacity:1" fill="#3e4271" d="M 29.5,110.5 C 30.3764,110.369 31.0431,110.702 31.5,111.5C 27.499,115.796 26.8324,115.462 29.5,110.5 Z"/></g>
<g><path style="opacity:1" fill="#acadc1" d="M 112.5,114.5 C 112.897,113.475 113.563,113.308 114.5,114C 116.019,115.351 117.352,116.851 118.5,118.5C 117.998,119.521 117.332,119.688 116.5,119C 115.672,117.008 114.339,115.508 112.5,114.5 Z"/></g>
<g><path style="opacity:1" fill="#cbccd8" d="M 34.5,112.5 C 35.0431,112.56 35.3764,112.893 35.5,113.5C 34.5197,114.981 33.353,116.315 32,117.5C 32.0773,118.738 31.9106,119.738 31.5,120.5C 30.5,120.167 29.8333,119.5 29.5,118.5C 31.1897,116.481 32.8564,114.481 34.5,112.5 Z"/></g>
<g><path style="opacity:1" fill="#c4c5d4" d="M 110.5,115.5 C 111.881,118.074 113.548,120.574 115.5,123C 114.833,123.667 114.167,123.667 113.5,123C 112.272,120.86 110.605,119.193 108.5,118C 109.381,117.292 110.047,116.458 110.5,115.5 Z"/></g>
<g><path style="opacity:1" fill="#c4c4d3" d="M 40.5,117.5 C 44.1955,119.738 44.1955,122.238 40.5,125C 39.2068,125.49 37.8734,125.657 36.5,125.5C 37.2872,122.592 38.6205,119.926 40.5,117.5 Z"/></g>
<g><path style="opacity:1" fill="#cccdd9" d="M 105.5,119.5 C 108.113,120.095 108.113,120.929 105.5,122C 106.208,124.768 107.708,125.601 110,124.5C 110.483,125.448 110.649,126.448 110.5,127.5C 105.765,126.69 104.098,124.023 105.5,119.5 Z"/></g>
<g><path style="opacity:1" fill="#bcbccd" d="M 49.5,123.5 C 51.3841,123.712 52.7174,124.712 53.5,126.5C 52.2048,128.328 51.2048,130.328 50.5,132.5C 49.7492,131.624 49.2492,130.624 49,129.5C 48.4444,131.595 47.9444,131.762 47.5,130C 48.6094,127.953 49.2761,125.787 49.5,123.5 Z"/></g>
<g><path style="opacity:1" fill="#d1d1dd" d="M 45.5,121.5 C 46.4972,121.47 47.1639,121.97 47.5,123C 46.8629,125.245 46.0296,127.412 45,129.5C 44.2276,128.151 43.0609,127.318 41.5,127C 43.4641,125.549 44.7974,123.716 45.5,121.5 Z"/></g>
<g><path style="opacity:1" fill="#c1c2d1" d="M 100.5,122.5 C 102.842,122.775 102.842,123.608 100.5,125C 102.886,125.284 103.552,126.284 102.5,128C 103.624,128.249 104.624,128.749 105.5,129.5C 104.167,130.833 102.833,130.833 101.5,129.5C 99.6312,127.278 99.2979,124.945 100.5,122.5 Z"/></g>
<g><path style="opacity:1" fill="#c5c6d4" d="M 88.5,127.5 C 91.7973,127.329 92.1306,127.995 89.5,129.5C 90.7598,130.382 91.9264,131.382 93,132.5C 93.1829,135.282 92.0163,135.949 89.5,134.5C 90.1667,134.167 90.8333,133.833 91.5,133.5C 90.6533,132.155 89.4866,131.155 88,130.5C 87.5304,129.423 87.6971,128.423 88.5,127.5 Z"/></g>
<g><path style="opacity:1" fill="#b8b8ca" d="M 93.5,125.5 C 95.1439,125.286 96.6439,125.62 98,126.5C 97.5024,129.023 97.0024,131.356 96.5,133.5C 94.7134,131.142 93.7134,128.475 93.5,125.5 Z"/></g>
<g><path style="opacity:1" fill="#bdbdce" d="M 60.5,127.5 C 61.7728,130.196 61.4395,132.862 59.5,135.5C 59.1667,135.167 58.8333,134.833 58.5,134.5C 59.5771,132.271 60.2437,129.937 60.5,127.5 Z"/></g>
<g><path style="opacity:1" fill="#d7d8e1" d="M 54.5,126.5 C 55.8333,126.5 57.1667,126.5 58.5,126.5C 58.4248,129.407 57.5914,132.073 56,134.5C 55.6411,131.456 54.9745,131.122 54,133.5C 53.6664,131.153 53.833,128.819 54.5,126.5 Z"/></g>
<g><path style="opacity:1" fill="#454976" d="M 55.5,127.5 C 57.337,127.639 57.6704,128.306 56.5,129.5C 55.7025,129.043 55.3691,128.376 55.5,127.5 Z"/></g>
<g><path style="opacity:1" fill="#b3b4c7" d="M 63.5,128.5 C 67.9707,128.672 68.3041,129.506 64.5,131C 67.028,132.017 67.028,133.184 64.5,134.5C 65.6085,136.214 64.9418,136.881 62.5,136.5C 62.4013,133.763 62.7347,131.096 63.5,128.5 Z"/></g>
<g><path style="opacity:1" fill="#d8d8e2" d="M 68.5,129.5 C 69.8333,129.5 71.1667,129.5 72.5,129.5C 71.9832,132.368 71.6499,135.034 71.5,137.5C 70.7492,136.624 70.2492,135.624 70,134.5C 69.6667,135.167 69.3333,135.833 69,136.5C 68.5034,134.19 68.3367,131.857 68.5,129.5 Z"/></g>
<g><path style="opacity:1" fill="#464b77" d="M 69.5,130.5 C 71.337,130.639 71.6704,131.306 70.5,132.5C 69.7025,132.043 69.3691,131.376 69.5,130.5 Z"/></g>
<g><path style="opacity:1" fill="#cecfdb" d="M 84.5,128.5 C 86.385,130.795 86.885,133.462 86,136.5C 84.2213,133.724 83.2213,134.057 83,137.5C 81.4597,135.045 81.1264,132.379 82,129.5C 83.9076,132.332 84.741,131.999 84.5,128.5 Z"/></g>
<g><path style="opacity:1" fill="#a5a7bd" d="M 77.5,129.5 C 78.7479,130.334 79.4146,131.667 79.5,133.5C 79.1667,134.833 78.8333,136.167 78.5,137.5C 77.52,134.914 77.1866,132.247 77.5,129.5 Z"/></g>
</svg>
