<?xml version="1.0" encoding="UTF-8"?>
<!DOCTYPE svg PUBLIC "-//W3C//DTD SVG 1.1//EN" "http://www.w3.org/Graphics/SVG/1.1/DTD/svg11.dtd">
<svg xmlns="http://www.w3.org/2000/svg" version="1.1" width="90px" height="90px" style="shape-rendering:geometricPrecision; text-rendering:geometricPrecision; image-rendering:optimizeQuality; fill-rule:evenodd; clip-rule:evenodd" xmlns:xlink="http://www.w3.org/1999/xlink">
<g><path style="opacity:0.976" fill="#3da7fb" d="M 38.5,8.5 C 57.8073,7.31508 65.6407,16.3151 62,35.5C 57.6195,45.9791 49.7862,49.8124 38.5,47C 29.9588,43.5931 25.9588,37.2597 26.5,28C 26.0819,18.6516 30.0819,12.1516 38.5,8.5 Z"/></g>
<g><path style="opacity:0.974" fill="#3ca7fb" d="M 31.5,57.5 C 39.8351,62.767 48.1685,62.767 56.5,57.5C 64.4325,59.2148 71.2659,62.8815 77,68.5C 77.9782,71.6693 77.4782,74.5027 75.5,77C 54.8333,77.6667 34.1667,77.6667 13.5,77C 11.5218,74.5027 11.0218,71.6693 12,68.5C 17.6059,63.1172 24.1059,59.4505 31.5,57.5 Z"/></g>
</svg>
